<?xml version="1.0" encoding="UTF-8" standalone="no"?>
<svg
   viewBox="0 0 448 512"
   version="1.1"
   id="svg2"
   sodipodi:docname="kde-invent.svg"
   width="448"
   height="512"
   inkscape:version="1.3.2 (091e20e, 2023-11-25, custom)"
   xmlns:inkscape="http://www.inkscape.org/namespaces/inkscape"
   xmlns:sodipodi="http://sodipodi.sourceforge.net/DTD/sodipodi-0.dtd"
   xmlns="http://www.w3.org/2000/svg"
   xmlns:svg="http://www.w3.org/2000/svg">
  <defs
     id="defs2" />
  <sodipodi:namedview
     id="namedview2"
     pagecolor="#ffffff"
     bordercolor="#000000"
     borderopacity="0.25"
     inkscape:showpageshadow="2"
     inkscape:pageopacity="0.0"
     inkscape:pagecheckerboard="0"
     inkscape:deskcolor="#d1d1d1"
     inkscape:zoom="0.91702911"
     inkscape:cx="171.75027"
     inkscape:cy="257.35279"
     inkscape:window-width="1280"
     inkscape:window-height="698"
     inkscape:window-x="-6"
     inkscape:window-y="-6"
     inkscape:window-maximized="1"
     inkscape:current-layer="svg2" />
  <g
     id="g2"
     transform="matrix(9.3333329,0,0,9.3333304,3.026667e-6,32.000085)">
    <path
       d="M 5.9999998,-9.14e-6 H 42.000001 c 3.323999,0 6.000001,2.67600674 6.000001,6.00000714 v 36 c 0,3.324001 -2.676002,6.000008 -6.000001,6.000008 H 5.9999998 C 2.6759997,48.000006 -4.2e-7,45.323999 -4.2e-7,41.999998 v -36 C -4.2e-7,2.6759976 2.6759997,-9.14e-6 5.9999998,-9.14e-6 Z"
       fill="#31363b"
       id="path1" />
    <path
       d="M 26.81721,6.0579518 20.839778,6.6301761 V 31.24346 l 5.914217,-0.890396 V 19.859082 l 7.94986,11.63921 6.232374,-1.972015 L 32.795757,18.332768 40.999999,7.7751349 34.640641,6.3130249 26.754134,16.870219 Z M 13.267815,12.055805 c -0.0675,0.0071 -0.132687,0.03685 -0.183377,0.08773 l -2.346015,2.345604 c -0.09864,0.09893 -0.11722,0.252309 -0.0445,0.372086 l 2.746696,4.523795 c -0.487167,0.819006 -0.877623,1.70206 -1.156683,2.633586 L 7.2413808,23.067473 C 7.1010857,23.096528 6.9999995,23.22084 6.9999995,23.36481 v 3.317296 c 0,0.140314 0.095983,0.261806 0.2311699,0.294475 l 4.8943156,1.196322 c 0.260998,1.07887 0.665445,2.101628 1.199988,3.041644 L 10.4925,35.534519 c -0.07904,0.120754 -0.06252,0.279776 0.0396,0.381468 l 2.345182,2.345604 c 0.09864,0.09836 0.252621,0.117637 0.372908,0.04535 l 4.43931,-2.696114 c 0.872008,0.503187 1.812374,0.899183 2.806296,1.16772 l 1.035783,4.980041 c 0.02915,0.141164 0.153885,0.241396 0.296928,0.241396 h 3.317709 c 0.139477,0 0.261191,-0.09524 0.294481,-0.232013 l 1.219994,-4.990317 c 1.024557,-0.276502 1.993542,-0.688627 2.886878,-1.21469 l 4.374709,2.868406 c 0.120287,0.07923 0.279379,0.06335 0.38148,-0.03869 l 2.346016,-2.34559 c 0.09924,-0.09921 0.117013,-0.252607 0.04409,-0.372072 l -1.597029,-2.631956 -0.516676,0.163387 c -0.07532,0.02381 -0.157452,-0.0043 -0.201758,-0.06987 0,0 -1.01864,-1.491165 -2.334206,-3.41665 -1.572715,3.077927 -4.772331,5.186372 -8.467241,5.186372 -5.249568,0 -9.505489,-4.256079 -9.505489,-9.505904 0,-3.861926 2.303503,-7.183248 5.610236,-8.671068 v -2.452313 c -0.601827,0.210541 -1.183648,0.464396 -1.73624,0.765418 -4.04e-4,-3.69e-4 -8.09e-4,-0.0014 -0.0024,-0.0028 l -4.477658,-2.936763 c -0.0603,-0.0394 -0.130199,-0.05513 -0.197673,-0.04819 z"
       fill="#fcfcfc"
       id="path2" />
  </g>
  <path
     style="fill:#28547c;stroke-width:1.09048;fill-opacity:1"
     d="M 49.616746,479.0609 C 37.336638,477.38982 25.669396,471.62746 16.987515,462.94558 10.369,456.32706 6.6011021,450.2455 3.0882202,440.51146 L 0.54523896,433.46498 V 256.80755 80.150128 L 2.9611504,72.4715 C 9.0742463,53.041902 25.380672,37.904545 44.49065,33.919407 c 4.079025,-0.850628 57.01349,-1.205069 179.97237,-1.205069 190.37236,0 179.27151,-0.361136 193.0036,6.27884 8.01351,3.874831 19.61342,15.398607 23.50311,23.348841 6.44071,13.164358 6.0992,2.326717 6.11328,193.994991 0.0116,158.11461 -0.16552,176.79442 -1.72679,182.10981 -5.29696,18.03361 -18.49812,31.91164 -36.427,38.29471 l -7.0881,2.52352 -174.47647,0.12051 c -95.96206,0.0663 -175.948616,-0.0798 -177.747904,-0.32466 z M 237.35174,422.83282 c 0.46571,-0.74971 3.33561,-11.62917 6.37757,-24.17659 l 5.53083,-22.81348 7.04514,-2.37985 c 3.87483,-1.30891 9.60508,-3.67876 12.7339,-5.26632 3.12881,-1.58756 6.13516,-2.88647 6.68076,-2.88647 0.5456,0 9.96643,5.88858 20.93518,13.08573 10.96875,7.19715 20.71297,13.08574 21.65385,13.08574 1.99991,0 25.19158,-22.77379 25.19158,-24.73766 0,-0.73127 -3.36009,-6.87358 -7.46687,-13.64958 -7.10815,-11.72814 -7.63373,-12.31208 -10.9406,-12.1553 -3.27637,0.15532 -4.01383,-0.62256 -12.9796,-13.691 -5.22822,-7.62062 -10.25192,-14.98035 -11.16377,-16.35496 -1.64068,-2.47332 -1.71617,-2.40986 -7.26251,6.10553 -35.07683,53.85396 -113.69261,53.09208 -148.15702,-1.43581 -27.23143,-43.08422 -11.20721,-101.59232 34.12606,-124.6021 l 4.63453,-2.35235 v -11.97308 c 0,-6.58522 -0.27947,-11.9731 -0.62105,-11.9731 -0.34157,0 -4.20757,1.49307 -8.5911,3.31794 l -7.97005,3.31794 -20.87052,-13.67748 c -11.47878,-7.52262 -21.46747,-13.67748 -22.19709,-13.67748 -2.08005,0 -24.807469,23.18373 -24.807469,25.30555 0,1.04362 5.710329,11.27412 12.689619,22.73446 l 12.68962,20.83698 -2.55375,5.09133 c -1.40457,2.80023 -3.84267,8.26186 -5.418,12.13695 l -2.86428,7.04561 -23.671652,4.94964 c -15.545826,3.25057 -24.02554,5.51114 -24.702558,6.58536 -1.602768,2.5431 -1.344593,31.94212 0.298805,34.02565 0.841185,1.06646 9.713703,3.72704 23.172656,6.94872 11.995259,2.87132 22.391409,5.65635 23.102559,6.18897 0.71116,0.53261 1.63272,2.5293 2.04793,4.43709 0.41521,1.90778 2.67648,7.95675 5.02504,13.44214 l 4.27012,9.97344 -13.13353,20.10508 c -7.22345,11.05778 -13.133535,20.79246 -13.133535,21.63261 0,2.00923 22.952225,25.00843 24.957355,25.00843 0.8521,0 10.88488,-5.67863 22.29506,-12.61918 l 20.74578,-12.61917 6.6212,3.21793 c 5.24253,2.54789 11.62294,5.03385 18.86282,7.34938 0.13549,0.0433 2.24654,9.86403 4.69121,21.82374 2.44468,11.95973 4.89955,22.84907 5.45528,24.19854 0.98827,2.39977 1.39209,2.45357 18.41708,2.45357 12.74676,0 17.63336,-0.36491 18.25342,-1.36309 z M 353.86009,317.18386 c 15.59383,-4.88501 28.52453,-9.0266 28.73489,-9.20355 0.21035,-0.17695 -16.66144,-23.74831 -37.49287,-52.38079 -32.28292,-44.3724 -37.69579,-52.34653 -36.65946,-54.00596 0.66873,-1.0708 17.43851,-22.83613 37.2662,-48.36739 19.82768,-25.53126 36.29374,-47.05476 36.59122,-47.82999 0.50172,-1.30745 -6.25683,-3.03247 -57.00794,-14.550408 -2.0861,-0.473439 -7.01007,5.648725 -38.01737,47.268418 -19.59148,26.29676 -35.93345,48.15617 -36.31547,48.57645 -0.38203,0.42028 -0.55752,-21.53922 -0.38998,-48.79889 l 0.30463,-49.563038 h -2.28507 c -3.45013,0 -49.21476,4.373389 -52.03022,4.972146 l -2.45358,0.521795 V 208.8473 c 0,91.29122 0.28126,115.02522 1.3631,115.02747 0.7497,0.002 13.25794,-1.80083 27.7961,-4.00529 l 26.43298,-4.00813 0.28372,-48.25282 0.28371,-48.25282 36.4336,53.3486 c 20.03849,29.34172 36.96816,53.35146 37.62149,53.35497 0.65334,0.004 13.94648,-3.99043 29.54032,-8.87542 z"
     id="path3" />
</svg>
